<svg width="330" height="232" viewBox="0 0 330 232" fill="none" xmlns="http://www.w3.org/2000/svg">
<path d="M227.91 26.9836C227.91 26.9836 189.841 3.46351 147.276 19.3258C104.71 35.1814 78.4685 78.8569 56.3009 113.597C34.1332 148.344 38.7424 189.366 66.4107 213.413C94.0789 237.466 118.003 215.546 160.311 223.085C202.619 230.625 213.099 239.395 251.445 221.433C289.791 203.477 304.08 145.111 282.395 95.1801C260.703 45.2558 227.91 26.9836 227.91 26.9836Z" fill="#F7F7F7"/>
<path d="M129.662 61.2807C129.662 61.2807 129.662 58.1794 126.315 55.9077C122.967 53.6426 114.944 54.953 111.952 58.772C108.961 62.5911 108.723 65.3368 105.25 66.4101C101.776 67.49 93.8786 68.6818 88.378 74.4104C82.8774 80.139 85.2678 91.8332 87.7771 92.7879C90.293 93.7427 87.1762 91.9517 87.5394 88.8503C87.896 85.749 90.4119 84.9128 90.4119 84.9128C90.4119 84.9128 87.1828 90.0422 94.0041 96.7255C100.825 103.409 108.367 101.855 114.712 100.545C121.058 99.2342 128.83 94.5789 129.425 89.0874C130.026 83.5959 127.992 80.4945 129.425 77.9858C130.858 75.4771 136.127 75.8392 136.847 71.0654C137.567 66.2982 135.652 59.9704 129.662 61.2807Z" fill="#1E1E1E" stroke="#263238" stroke-miterlimit="10" stroke-linecap="round" stroke-linejoin="round"/>
<path d="M152.722 146.558C152.722 146.558 156.063 142.344 157.311 142.205C158.559 142.067 160.494 144.964 161.326 147.17C162.158 149.376 164.093 153.926 164.093 156.138C164.093 160.004 162.435 161.241 161.742 160.557C161.049 159.865 159.252 155.585 158.282 154.762C157.311 153.933 156.182 153.656 156.182 153.656C156.182 153.656 154.082 148.29 152.722 146.558Z" fill="#D3D3D3"/>
<path d="M145.267 176.432C145.267 176.432 149.281 176.709 150.661 176.847C152.048 176.985 152.048 180.297 151.494 182.641C150.939 184.985 150.245 186.507 150.8 189.127C151.355 191.748 149.829 194.645 149.004 195.89C148.172 197.134 146.376 196.857 146.237 195.89C146.099 194.922 146.653 189.265 144.712 186.092C142.777 182.918 143.054 178.638 145.267 176.432Z" fill="#D3D3D3"/>
<path d="M163.419 34.4358C162.699 34.4358 159.827 35.1535 159.589 35.9897C159.352 36.826 158.988 44.9381 158.988 44.9381C158.988 44.9381 153.963 54.4858 152.286 58.0678C150.609 61.6498 146.184 70.2427 146.184 70.2427L135.051 81.8118C135.051 81.8118 133.374 82.648 130.501 84.3205C130.23 84.4785 129.947 84.6497 129.663 84.8275L124.4 85.9864L119.85 85.1501C119.85 85.1501 116.02 82.1673 113.147 80.4948C110.275 78.8224 108.598 77.9861 108.598 77.9861L97.471 66.417C97.471 66.417 93.0401 57.8242 91.3695 54.2422C89.6922 50.6601 84.667 41.1125 84.667 41.1125C84.667 41.1125 84.3038 33.0003 84.0661 32.1641C83.8284 31.3278 80.9559 30.6167 80.2361 30.6167C79.5164 30.6167 78.2023 34.4358 78.6843 35.2654C79.1664 36.0951 80.4804 36.1016 80.4804 36.1016C80.4804 36.1016 80.3616 38.3667 80.4804 38.9659C80.5993 39.5651 82.3954 40.7569 82.3954 40.7569C82.3954 40.7569 84.9113 51.1408 86.582 58.2982C88.2593 65.4557 90.412 70.2295 91.3695 71.0657C92.327 71.902 101.783 81.4496 103.698 84.6695C105.613 87.8893 109.086 91.2343 109.086 91.2343C109.086 91.2343 108.01 96.4822 108.01 99.3465C108.01 102.211 110.883 108.295 111.84 111.041C112.798 113.786 113.993 126.554 113.993 126.916C113.993 127.272 114.594 135.153 114.594 135.153C114.594 135.153 108.129 149.238 106.095 159.26C104.061 169.281 105.019 175.01 109.687 177.163C114.356 179.316 135.54 182.292 136.134 183.01C136.735 183.728 137.21 184.202 138.049 184.202C138.888 184.202 139.964 183.721 140.684 184.202C141.403 184.676 141.403 185.038 142.242 185.038C143.081 185.038 143.919 185.874 144.157 186.348C144.395 186.823 145.834 185.874 146.31 182.292C146.792 178.71 146.072 177.044 145.352 176.919C144.633 176.794 144.751 175.609 143.556 175.609C142.361 175.609 139.726 176.083 139.726 176.083C139.726 176.083 138.531 175.728 137.811 175.728C137.091 175.728 136.253 175.128 135.777 175.01C135.302 174.891 127.398 171.671 127.398 171.671L127.1 171.513C135.091 166.963 146.422 158.924 146.422 158.924C146.422 158.924 149.678 158.72 151.097 157.501C152.524 156.283 153.739 154.663 153.739 154.663L156.182 153.649C156.182 153.649 156.182 151.016 154.756 149.185C153.329 147.355 152.722 146.551 152.722 146.551C152.722 146.551 148.859 148.375 147.637 148.783C146.415 149.192 144.586 149.389 143.569 150.403C142.552 151.417 139.911 153.445 139.911 153.445L130.963 158.107C130.963 158.107 142.354 143.509 143.774 137.425C144.996 132.21 143.127 126.449 139.997 122.241C137.64 119.074 134.331 116.664 131.822 113.609C130.62 112.147 129.702 111.067 129.788 110.441C129.927 109.474 131.063 104.608 132.093 100.459L135.302 94.3159C136.094 93.4928 139.634 89.035 139.964 88.4819C141.879 85.2621 151.335 75.7144 152.292 74.8782C153.25 74.042 155.403 69.2682 157.08 62.1107C158.757 54.9533 161.266 44.5694 161.266 44.5694C161.266 44.5694 163.063 43.3776 163.181 42.7784C163.3 42.1792 163.181 39.9141 163.181 39.9141C163.181 39.9141 164.496 39.9141 164.978 39.0779C165.453 38.2482 164.132 34.4358 163.419 34.4358Z" fill="#FFA895"/>
<path d="M152.722 146.558C152.722 146.558 148.859 148.382 147.637 148.79C146.416 149.198 144.586 149.396 143.569 150.41C142.553 151.424 139.911 153.452 139.911 153.452L130.964 158.114C130.964 158.114 142.354 143.516 143.774 137.432C144.996 132.217 143.127 126.455 139.997 122.248C138.848 120.707 137.475 119.344 136.081 118C134.232 119.633 131.591 121.648 127.972 123.716C122.115 127.067 116.733 127.028 113.98 126.692C113.993 126.817 113.993 126.896 113.993 126.923C113.993 127.278 114.594 135.16 114.594 135.16C114.594 135.16 108.129 149.244 106.095 159.266C104.061 169.288 105.019 175.016 109.687 177.169C114.356 179.323 135.54 182.299 136.134 183.017C136.735 183.734 137.21 184.208 138.049 184.208C138.888 184.208 139.964 183.728 140.684 184.208C141.404 184.682 141.404 185.045 142.242 185.045C143.081 185.045 143.919 185.881 144.157 186.355C144.395 186.829 145.834 185.881 146.31 182.299C146.792 178.717 146.072 177.051 145.352 176.926C144.633 176.801 144.751 175.616 143.556 175.616C142.361 175.616 139.726 176.09 139.726 176.09C139.726 176.09 138.531 175.734 137.811 175.734C137.092 175.734 136.253 175.135 135.777 175.016C135.302 174.898 127.398 171.678 127.398 171.678L127.101 171.52C135.091 166.97 146.422 158.93 146.422 158.93C146.422 158.93 149.678 158.726 151.097 157.508C152.524 156.29 153.739 154.67 153.739 154.67L156.182 153.656C156.182 153.656 156.182 151.022 154.756 149.192C153.329 147.361 152.722 146.558 152.722 146.558Z" fill="#233D4D"/>
<path d="M122.155 134.343L124.505 135.449C124.505 135.449 114.68 159.049 113.293 165.811C111.906 172.573 113.57 175.885 116.198 175.885C118.827 175.885 126.302 172.02 126.302 172.02" stroke="white" stroke-opacity="0.4" stroke-miterlimit="10" stroke-linecap="round" stroke-linejoin="round"/>
<path d="M130.957 158.12C130.957 158.12 125.06 166.772 123.396 168.846" stroke="white" stroke-opacity="0.4" stroke-miterlimit="10" stroke-linecap="round" stroke-linejoin="round"/>
<path d="M82.9897 33.8364C82.9897 33.8364 80.5993 30.498 80.2361 29.7803C79.8795 29.0626 79.1598 31.0906 79.7607 32.2825C80.3616 33.4743 81.1936 34.3105 81.1936 34.3105C81.1936 34.3105 80.2361 37.1748 81.6691 38.3666" fill="#FFB6A6"/>
<path d="M159.979 38.3139C159.979 38.3139 162.369 34.9756 162.732 34.2578C163.089 33.5401 163.809 35.5682 163.214 36.7666C162.614 37.9584 161.781 38.7946 161.781 38.7946C161.781 38.7946 162.739 41.6589 161.306 42.8507" fill="#FFB6A6"/>
<path d="M109.08 91.2406C109.08 91.2406 108.003 96.4885 108.003 99.3528C108.003 102.217 110.876 108.301 111.833 111.047C112.791 113.793 113.986 126.56 113.986 126.922C113.986 127.021 114.032 127.732 114.105 128.687C118.338 129.859 127.074 130.261 137.474 119.383C135.586 117.467 133.519 115.689 131.815 113.615C130.614 112.153 129.696 111.073 129.782 110.448C129.92 109.48 131.056 104.614 132.086 100.466L135.295 94.3221C136.088 93.4991 139.627 89.0413 139.957 88.4882C141.872 85.2684 151.328 75.7207 152.286 74.8845C153.243 74.0482 155.396 69.2744 157.073 62.117C157.694 59.4766 158.427 56.395 159.101 53.557C158.031 53.3529 156.737 52.9381 155.218 52.1874C154.062 54.4394 152.926 56.6913 152.286 58.0609C150.609 61.6429 146.184 70.2358 146.184 70.2358L135.051 81.8115C135.051 81.8115 133.374 82.6477 130.501 84.3202C130.231 84.4782 129.947 84.6494 129.663 84.8272L124.4 85.9861L119.85 85.1498C119.85 85.1498 116.02 82.167 113.148 80.4945C110.275 78.8221 108.598 77.9858 108.598 77.9858L97.4711 66.4167C97.4711 66.4167 93.0402 57.8238 91.3695 54.2418C90.5969 52.5957 89.1178 49.6787 87.7442 47.0186C86.6943 47.4597 85.5123 47.9009 84.2114 48.2894C84.9774 51.4961 85.8623 55.1966 86.5887 58.3045C88.2659 65.462 90.4186 70.2358 91.3761 71.072C92.3336 71.9083 101.79 81.4559 103.705 84.6757C105.606 87.8956 109.08 91.2406 109.08 91.2406Z" fill="#1CE783"/>
<path d="M109.41 78.4138C108.888 78.1373 108.604 77.9924 108.604 77.9924L107.944 77.3076L102.549 83.0625C103.005 83.642 103.381 84.1556 103.639 84.577L109.41 78.4138Z" fill="#263238"/>
<path d="M104.358 73.5808L103.084 72.2573L97.1343 76.939C97.5503 77.3801 97.9663 77.8279 98.3823 78.2822L104.358 73.5808Z" fill="#263238"/>
<path d="M113.973 80.9951C113.696 80.8173 113.418 80.6527 113.147 80.4946C112.877 80.3366 112.619 80.1917 112.375 80.0469L105.771 87.5928C106.181 88.0998 106.584 88.5673 106.967 89.0019L113.973 80.9951Z" fill="#263238"/>
<path d="M99.0558 68.063L92.1882 71.8557C92.5514 72.2113 93.0071 72.6722 93.5287 73.199L100.363 69.426L99.0558 68.063Z" fill="#263238"/>
<path d="M115.908 82.2725L113.048 85.4528C112.923 85.4923 112.804 85.5582 112.698 85.6504C112.566 85.7755 112.494 85.9401 112.454 86.1047L108.426 90.5822C108.822 90.9904 109.073 91.2341 109.073 91.2341C109.073 91.2341 108.875 92.202 108.651 93.5255L109.384 92.4193C111.173 93.1831 116.159 94.5593 128.811 94.5593C130.105 94.5593 131.479 94.5461 132.931 94.5132C133.07 94.5132 133.202 94.4737 133.321 94.4144C133.783 94.7766 134.292 95.0334 134.853 95.1585L135.295 94.3156C135.454 94.151 135.724 93.8416 136.055 93.4465C135.83 93.4465 135.612 93.4333 135.408 93.4136C133.129 93.137 131.743 88.2973 131.135 83.9449C130.93 84.0635 130.719 84.182 130.501 84.3137C130.23 84.4717 129.947 84.6429 129.663 84.8207L129.425 84.8734C129.524 85.5055 129.636 86.1705 129.781 86.8553C121.032 89.1007 116.482 87.2767 114.792 86.2561L117.42 83.3326C116.944 82.9968 116.436 82.6346 115.908 82.2725ZM122.062 89.7657C124.301 89.7657 127.001 89.4496 130.204 88.6332C130.613 90.1147 131.148 91.5567 131.862 92.7156C118.232 92.9329 112.599 91.6226 110.585 90.9246L113.537 87.6389C114.805 88.4751 117.479 89.7657 122.062 89.7657Z" fill="#263238"/>
<path d="M92.6572 56.9019L86.8396 59.3645C86.9915 59.9769 87.15 60.576 87.3084 61.1489L93.4694 58.5414C93.1855 57.9817 92.9147 57.4286 92.6572 56.9019Z" fill="#263238"/>
<path d="M89.9629 51.3774L85.3472 53.0763C85.4924 53.6755 85.6311 54.2747 85.7698 54.8673L90.7818 53.0236C90.5374 52.5232 90.2601 51.9701 89.9629 51.3774Z" fill="#263238"/>
<path d="M96.2363 64.0065C95.9853 63.5127 95.7014 62.9596 95.4042 62.3735L88.9065 66.1728C89.1376 66.7984 89.3687 67.3712 89.5866 67.8914L96.2363 64.0065Z" fill="#263238"/>
<path d="M149.03 64.6519C148.733 65.2379 148.443 65.8107 148.172 66.3507C149.975 67.9771 152.055 69.7615 154.201 71.401C154.425 70.8611 154.656 70.2685 154.888 69.6166C152.794 67.9968 150.767 66.2387 149.03 64.6519Z" fill="#263238"/>
<path d="M130.125 108.769C130.244 108.216 130.396 107.57 130.561 106.853C120.926 108.183 113.841 107.024 109.826 105.931C110.11 106.662 110.4 107.379 110.671 108.064C113.458 108.729 117.255 109.315 122.003 109.315C124.459 109.309 127.173 109.151 130.125 108.769Z" fill="#263238"/>
<path d="M151.256 60.2008C153.111 61.5638 154.993 62.7556 156.677 63.7367C156.809 63.21 156.948 62.6766 157.073 62.1235C157.093 62.0445 157.113 61.9589 157.133 61.8799C155.535 60.9317 153.778 59.7991 152.068 58.5283C151.83 59.0222 151.553 59.5884 151.256 60.2008Z" fill="#263238"/>
<path d="M108.01 99.0563C108.01 99.1551 108.003 99.2605 108.003 99.3526C108.003 99.7938 108.076 100.314 108.195 100.887C112.098 100.597 120.173 100.413 131.663 102.191C131.802 101.611 131.947 101.032 132.086 100.472L132.119 100.413C120.253 98.5427 112.018 98.7403 108.01 99.0563Z" fill="#263238"/>
<path d="M135.203 117.164C134.754 116.73 134.312 116.288 133.869 115.847C126.982 120.463 118.78 122.34 113.623 123.097C113.696 123.782 113.755 124.407 113.808 124.947C119.216 124.177 127.88 122.208 135.203 117.164Z" fill="#263238"/>
<path d="M112.672 115.294C112.758 115.887 112.844 116.512 112.93 117.151C113.616 117.171 114.356 117.184 115.148 117.184C119.903 117.184 126.467 116.703 132.773 114.701C132.443 114.346 132.119 113.99 131.809 113.615C131.69 113.464 131.571 113.325 131.452 113.187C124.453 115.248 117.116 115.439 112.672 115.294Z" fill="#263238"/>
<path d="M144.831 71.6445C146.409 73.587 148.152 75.5228 149.849 77.3007C150.338 76.8068 150.774 76.3657 151.143 75.9969C149.427 74.1993 147.677 72.2569 146.112 70.3145L144.831 71.6445Z" fill="#263238"/>
<path d="M145.339 82.0221C145.755 81.5678 146.178 81.12 146.594 80.6788C144.494 79.1249 142.638 77.2022 141.166 75.4507L139.885 76.7874C141.371 78.5323 143.226 80.4352 145.339 82.0221Z" fill="#263238"/>
<path d="M139.957 88.4945C140.136 88.1982 140.373 87.8492 140.664 87.4542C139.64 85.5315 138.148 82.6804 136.827 79.9609L135.474 81.3634C136.933 84.3463 138.551 87.3949 139.488 89.1398C139.733 88.8238 139.898 88.5933 139.957 88.4945Z" fill="#263238"/>
<path opacity="0.25" d="M158.936 53.5175C156.109 59.7334 150.701 71.6119 149.638 73.9758C148.179 77.2154 136.656 88.8635 134.708 89.9961C132.76 91.1286 131.624 93.881 130.812 96.7914C130.039 99.5635 127.8 101.75 127.589 104.746C126.48 103.903 124.314 103.198 121.237 102.941C115.393 102.454 109.879 103.909 109.879 98.5692C109.879 93.2291 113.286 88.0536 113.451 86.4338C113.616 84.814 110.368 87.731 108.743 86.5984C107.112 85.4659 96.0778 72.8433 92.8355 68.8003C90.7686 66.2192 87.0971 55.539 84.7001 48.1313C84.535 48.184 84.3699 48.2367 84.2048 48.2894C84.9708 51.4961 85.8557 55.1966 86.5821 58.3045C88.2593 65.4619 90.412 70.2358 91.3695 71.072C92.327 71.9082 101.783 81.4559 103.698 84.6757C105.613 87.8956 109.086 91.2406 109.086 91.2406C109.086 91.2406 108.01 96.4885 108.01 99.3528C108.01 102.217 110.883 108.301 111.84 111.047C112.798 113.793 113.993 126.56 113.993 126.922C113.993 127.021 114.039 127.732 114.112 128.687C114.633 128.832 115.228 128.964 115.888 129.069C115.776 124.065 114.944 113.635 116.37 111.356C117.922 108.881 125.41 108.769 127.622 107.353C127.767 109.73 128.322 111.969 130.33 114.596C131.512 116.143 134.199 118.257 136.788 120.101C137.019 119.864 137.25 119.633 137.488 119.39C135.599 117.474 133.532 115.696 131.829 113.622C130.627 112.16 129.709 111.08 129.795 110.454C129.933 109.486 131.069 104.62 132.099 100.472L135.309 94.3287C136.101 93.5057 139.64 89.0479 139.971 88.4948C141.886 85.2749 151.342 75.7273 152.299 74.8911C153.257 74.0548 155.409 69.281 157.087 62.1236C157.707 59.4832 158.44 56.4016 159.114 53.5636C159.048 53.5505 158.988 53.5307 158.936 53.5175Z" fill="black"/>
<path d="M118.655 75.8462C118.655 75.8462 118.774 83.3658 118.179 85.1568C117.578 86.9478 114.231 90.4047 115.663 93.269C117.096 96.1333 122.366 92.9134 124.281 89.4499C126.196 85.9864 125.238 84.9131 125.238 84.9131V79.6652L118.655 75.8462Z" fill="#FFA895"/>
<path d="M125.238 79.6652L118.655 75.8462C118.655 75.8462 118.774 83.3658 118.179 85.1568C118.107 85.3741 117.994 85.6177 117.856 85.8745C119.355 86.2762 120.563 86.3091 121.725 85.9535C122.98 85.5716 124.34 84.393 125.245 83.4909V79.6652H125.238Z" fill="black" fill-opacity="0.1"/>
<path d="M117.341 70.8283C117.341 70.8283 115.069 68.6818 114.468 70.2292C113.867 71.7831 115.426 74.0482 116.264 74.2852C117.103 74.5223 117.103 74.5223 117.103 74.5223C117.103 74.5223 117.585 77.1495 119.493 79.0591C121.408 80.9686 123.561 81.9234 125.958 80.7315C128.349 79.5397 130.264 76.5569 130.865 72.9749C131.465 69.3929 131.221 68.2011 131.221 67.6019C131.221 67.0027 130.145 62.7096 127.035 61.6363C123.924 60.563 124.281 61.8733 121.89 64.6191C119.493 67.3714 117.341 70.8283 117.341 70.8283Z" fill="#FFA895"/>
<path d="M130.574 65.4028C130.765 67.3848 131.096 72.501 129.676 74.9505C127.893 78.0255 126.103 80.9358 122.538 79.4807C118.965 78.0255 117.829 74.3052 117.829 74.3052C117.829 74.3052 116.859 74.4698 115.393 73.1726C115.214 73.0146 115.043 72.9093 114.871 72.8368C115.287 73.5875 115.855 74.1801 116.264 74.292C117.103 74.5291 117.103 74.5291 117.103 74.5291C117.103 74.5291 117.585 77.1563 119.493 79.0658C121.408 80.9754 123.561 81.9301 125.958 80.7383C128.349 79.5465 130.264 76.5637 130.865 72.9817C131.465 69.3997 131.221 68.2079 131.221 67.6087C131.221 67.3585 131.03 66.4498 130.574 65.4028Z" fill="black" fill-opacity="0.1"/>
<path d="M127.272 68.4448C127.272 68.4448 126.434 69.9988 126.797 70.3544C127.153 70.7099 128.355 71.4276 127.754 71.7832C127.153 72.1388 125.958 72.1388 125.958 72.1388" stroke="#263238" stroke-width="0.5" stroke-miterlimit="10" stroke-linecap="round" stroke-linejoin="round"/>
<path d="M122.485 72.6191C122.485 72.6191 123.918 74.2916 128.468 73.6924C128.468 73.6924 125.714 76.4382 124.519 76.4382C123.323 76.4382 122.485 72.6191 122.485 72.6191Z" stroke="#263238" stroke-width="0.5" stroke-miterlimit="10" stroke-linecap="round" stroke-linejoin="round"/>
<path d="M121.646 68.8004C121.646 68.8004 123.324 68.2012 124.281 69.1559" stroke="#263238" stroke-width="0.5" stroke-miterlimit="10" stroke-linecap="round" stroke-linejoin="round"/>
<path d="M127.629 69.7552C127.629 69.7552 129.544 69.156 129.9 70.4729" stroke="#263238" stroke-width="0.5" stroke-miterlimit="10" stroke-linecap="round" stroke-linejoin="round"/>
<path d="M121.527 66.7725C121.527 66.7725 122.841 65.2185 124.638 66.0548" stroke="#263238" stroke-width="0.5" stroke-miterlimit="10" stroke-linecap="round" stroke-linejoin="round"/>
<path d="M127.873 67.3712C127.873 67.3712 129.431 65.9424 130.508 68.563" stroke="#263238" stroke-width="0.5" stroke-miterlimit="10" stroke-linecap="round" stroke-linejoin="round"/>
<path d="M181.191 158.406C181.191 158.406 179.283 163.384 177.81 166.314C176.344 169.244 173.842 181.695 173.254 187.845C172.666 193.995 171.788 201.759 171.788 201.759C171.788 201.759 168.407 207.909 166.796 210.253C165.184 212.597 162.827 213.914 164.154 215.527C165.475 217.14 168.711 214.941 171.055 213.624C173.406 212.307 173.696 209.963 175.024 209.377C176.344 208.791 179.137 209.232 178.695 205.42C178.253 201.614 176.199 199.704 176.641 198.684C177.084 197.656 180.168 187.549 181.488 184.915C182.809 182.281 185.747 179.2 186.923 175.104C188.098 171.002 187.953 166.169 187.953 166.169C187.953 166.169 190.746 160.605 191.182 160.309C191.618 160.019 182.809 159.578 181.191 158.406Z" fill="white"/>
<path d="M181.191 158.406C181.191 158.406 179.283 163.384 177.81 166.314C176.344 169.244 173.842 181.695 173.254 187.845C172.666 193.995 171.788 201.759 171.788 201.759C171.788 201.759 168.407 207.909 166.796 210.253C165.184 212.597 162.827 213.914 164.154 215.527C165.475 217.14 168.711 214.941 171.055 213.624C173.406 212.307 173.696 209.963 175.024 209.377C176.344 208.791 179.137 209.232 178.695 205.42C178.253 201.614 176.199 199.704 176.641 198.684C177.084 197.656 180.168 187.549 181.488 184.915C182.809 182.281 185.747 179.2 186.923 175.104C188.098 171.002 187.953 166.169 187.953 166.169C187.953 166.169 190.746 160.605 191.182 160.309C191.618 160.019 182.809 159.578 181.191 158.406Z" fill="#FFA895"/>
<path opacity="0.1" d="M179.085 163.568C180.366 164.246 182.822 165.438 184.328 165.438C186.434 165.438 186.434 165.438 186.434 165.438C186.434 165.438 188.072 169.171 185.265 175.473C182.459 181.774 177.546 189.241 176.377 194.14C175.724 196.866 173.987 205.386 172.574 212.399C173.643 211.181 174.066 209.811 175.03 209.383C176.351 208.797 179.144 209.238 178.702 205.426C178.259 201.62 176.206 199.711 176.648 198.69C177.09 197.663 180.174 187.555 181.495 184.922C182.816 182.288 185.754 179.206 186.93 175.111C188.105 171.008 187.96 166.175 187.96 166.175C187.96 166.175 190.753 160.611 191.189 160.315C191.631 160.025 182.816 159.584 181.198 158.412C181.191 158.406 180.194 161.013 179.085 163.568Z" fill="black"/>
<path d="M164.154 215.533C165.475 217.147 168.711 214.947 171.055 213.631C173.406 212.314 173.696 209.969 175.024 209.383C176.344 208.797 179.138 209.239 178.695 205.426C178.306 202.042 176.641 200.165 176.582 199.065C176.457 199.605 176.054 200.646 174.726 201.765C172.818 203.378 171.788 201.765 171.788 201.765C171.788 201.765 168.407 207.915 166.796 210.259C165.185 212.603 162.834 213.92 164.154 215.533Z" fill="#D3D3D3"/>
<path d="M219.088 159.143L222.469 164.272C222.469 164.272 223.935 171.008 226.141 175.407C228.346 179.799 233.781 187.272 236.422 190.492C239.063 193.712 239.948 200.013 239.948 200.013C239.948 200.013 238.628 202.799 239.506 204.846C240.384 206.894 242.887 208.362 243.323 210.265C243.765 212.168 246.406 216.712 248.467 216.415C250.52 216.126 251.848 213.485 250.23 209.679C248.612 205.874 245.528 202.943 244.65 198.986C243.772 195.029 240.978 178.627 238.628 173.504C236.277 168.374 233.926 165.01 233.926 165.01L231.72 156.219C231.72 156.213 223.493 160.605 219.088 159.143Z" fill="white"/>
<path d="M219.088 159.143L222.469 164.272C222.469 164.272 223.935 171.008 226.141 175.407C228.346 179.799 233.781 187.272 236.422 190.492C239.063 193.712 239.948 200.013 239.948 200.013C239.948 200.013 238.628 202.799 239.506 204.846C240.384 206.894 242.887 208.362 243.323 210.265C243.765 212.168 246.406 216.712 248.467 216.415C250.52 216.126 251.848 213.485 250.23 209.679C248.612 205.874 245.528 202.943 244.65 198.986C243.772 195.029 240.978 178.627 238.628 173.504C236.277 168.374 233.926 165.01 233.926 165.01L231.72 156.219C231.72 156.213 223.493 160.605 219.088 159.143Z" fill="#FFA895"/>
<path opacity="0.1" d="M238.621 173.497C236.27 168.368 233.919 165.003 233.919 165.003L231.714 156.213C231.714 156.213 223.486 160.605 219.082 159.143L222.436 164.239C223.011 164.259 223.644 164.272 224.325 164.272C227.131 164.272 229.706 163.107 229.706 163.107C229.706 163.107 235.319 171.97 238.132 179.437C240.08 184.619 242.59 192.487 244.26 197.136C243.125 191.375 240.701 178.028 238.621 173.497Z" fill="black"/>
<path d="M250.23 209.673C248.837 206.388 246.354 203.76 245.132 200.56C244.875 201.212 244.531 201.818 244.062 202.2C242.444 203.517 239.948 200 239.948 200C239.948 200 238.628 202.786 239.506 204.834C240.384 206.881 242.887 208.35 243.323 210.253C243.765 212.156 246.407 216.699 248.467 216.403C250.52 216.12 251.841 213.479 250.23 209.673Z" fill="#D3D3D3"/>
<path d="M224.813 113.15C224.813 113.15 225.104 113.44 223.783 114.322C222.462 115.198 219.227 115.935 219.966 117.107C220.699 118.279 221.432 118.865 220.844 119.306C220.257 119.748 219.379 119.748 218.639 120.334C217.906 120.92 215.7 113.887 215.7 113.887C215.7 113.887 221.142 111.247 224.813 113.15Z" fill="white"/>
<path d="M224.813 113.15C224.813 113.15 225.104 113.44 223.783 114.322C222.462 115.198 219.227 115.935 219.966 117.107C220.699 118.279 221.432 118.865 220.844 119.306C220.257 119.748 219.379 119.748 218.639 120.334C217.906 120.92 215.7 113.887 215.7 113.887C215.7 113.887 221.142 111.247 224.813 113.15Z" fill="#1CE783"/>
<path opacity="0.25" d="M224.813 113.15C224.813 113.15 225.104 113.44 223.783 114.322C222.462 115.198 219.227 115.935 219.966 117.107C220.699 118.279 221.432 118.865 220.844 119.306C220.257 119.748 219.379 119.748 218.639 120.334C217.906 120.92 215.7 113.887 215.7 113.887C215.7 113.887 221.142 111.247 224.813 113.15Z" fill="black"/>
<path d="M191.182 117.983L189.861 125.601C189.861 125.601 184.427 137.315 182.518 143.321C180.61 149.326 177.817 159.874 177.817 159.874C177.817 159.874 179.87 161.487 186.044 162.508C192.212 163.535 199.997 159.578 199.997 159.578C199.997 159.578 202.348 146.982 203.081 145.368C203.814 143.755 205.875 139.508 205.875 139.508H207.783L212.775 158.84C212.775 158.84 217.331 160.012 219.973 160.454C222.614 160.895 226.583 161.184 230.109 158.695C233.635 156.207 235.689 152.249 235.689 152.249C235.689 152.249 230.109 139.067 227.613 133.648C225.117 128.229 219.385 119.004 219.385 119.004L217.622 112.999L191.182 117.983Z" fill="#233D4D"/>
<path d="M191.472 128.532L197.64 134.392" stroke="white" stroke-opacity="0.4" stroke-miterlimit="10" stroke-linecap="round" stroke-linejoin="round"/>
<path d="M198.974 136.275L199.991 137.026" stroke="white" stroke-opacity="0.4" stroke-miterlimit="10" stroke-linecap="round" stroke-linejoin="round"/>
<path d="M191.618 130.875L197.798 135.412" stroke="white" stroke-opacity="0.4" stroke-miterlimit="10" stroke-linecap="round" stroke-linejoin="round"/>
<path d="M196.848 159.262C197.699 158.946 198.551 158.571 199.403 158.116" stroke="white" stroke-opacity="0.4" stroke-miterlimit="10" stroke-linecap="round" stroke-linejoin="round"/>
<path d="M179.428 158.702C179.428 158.702 185.754 161.672 193.374 160.223" stroke="white" stroke-opacity="0.4" stroke-miterlimit="10" stroke-linecap="round" stroke-linejoin="round"/>
<path d="M213.356 157.385C213.356 157.385 223.492 163.831 234.507 151.525" stroke="white" stroke-opacity="0.4" stroke-miterlimit="10" stroke-linecap="round" stroke-linejoin="round"/>
<path d="M221.142 124.285L218.203 129.849" stroke="white" stroke-opacity="0.4" stroke-miterlimit="10" stroke-linecap="round" stroke-linejoin="round"/>
<path d="M197.204 122.381C197.204 122.381 205.135 123.553 213.066 119.451" stroke="white" stroke-opacity="0.4" stroke-miterlimit="10" stroke-linecap="round" stroke-linejoin="round"/>
<path d="M218.573 116.251L217.622 113.005L191.182 117.983L190.944 119.339C193.275 120.07 197.944 121.078 204.25 120.182C209.724 119.399 215.1 117.594 218.573 116.251Z" fill="white"/>
<path d="M218.573 116.251L217.622 113.005L191.182 117.983L190.944 119.339C193.275 120.07 197.944 121.078 204.25 120.182C209.724 119.399 215.1 117.594 218.573 116.251Z" fill="#FFA895"/>
<path d="M233.081 59.9861C231.701 54.7514 229.66 49.6944 227.362 44.8021C225.579 41.0028 223.796 36.2487 221.036 33.0354C219.273 30.9876 216.044 29.3744 215.304 29.6641C214.578 29.9604 211.342 31.2774 211.342 33.0354C211.342 34.7935 212.518 34.7935 212.518 34.7935C212.518 34.7935 212.227 36.9928 213.105 37.8685C213.984 38.7443 218.54 38.4545 218.54 38.4545C218.54 38.4545 220.105 40.7723 220.554 42.2604C221.432 45.1906 222.211 45.7766 222.799 51.0508C223.387 56.3251 225.295 63.5023 225.295 63.5023C225.295 63.5023 224.708 63.792 223.829 64.8192C222.951 65.8464 217.365 71.4103 217.365 71.4103C217.365 71.4103 215.311 72.4375 212.372 73.3133C210.556 73.8532 208.972 74.617 208.021 75.124C207.116 75.0187 206.205 74.9199 205.716 74.9199C204.686 74.9199 197.488 76.2368 197.488 76.2368C197.488 76.2368 195.137 74.7751 192.199 73.8927C189.26 73.017 187.207 71.9898 187.207 71.9898C187.207 71.9898 181.627 66.4258 180.742 65.3986C179.864 64.3714 179.276 64.0817 179.276 64.0817C179.276 64.0817 181.185 56.9045 181.772 51.6303C182.248 47.3766 183.469 42.5436 186.031 39.034C186.031 39.034 190.588 39.3237 191.466 38.448C192.344 37.5722 192.054 35.373 192.054 35.373C192.054 35.373 193.229 35.373 193.229 33.6149C193.229 31.8568 190 30.5399 189.26 30.2436C188.527 29.9539 185.292 31.5605 183.535 33.6149C181.772 35.6627 181.917 37.7171 180.154 40.6472C178.391 43.5773 172.224 57.7868 171.491 60.5655C170.758 63.3508 169.873 64.9575 170.025 66.281C170.17 67.5979 177.222 75.2162 178.986 77.264C180.749 79.3118 187.504 86.3442 187.504 86.3442C187.504 86.3442 190 98.6441 190.733 103.043C191.466 107.435 191.024 119.596 191.024 119.596C191.024 119.596 199.1 117.838 206.74 116.962C214.38 116.087 222.753 113.157 223.776 113.157C224.807 113.157 224.807 113.157 224.807 113.157C224.807 113.157 219.075 106.124 219.075 105.104C219.075 104.287 219.26 89.3665 219.339 83.3877C221.472 81.1489 224.49 77.962 225.579 76.6912C227.342 74.6434 234.395 67.025 234.54 65.7081C234.698 64.378 233.82 62.7648 233.081 59.9861Z" fill="white"/>
<path d="M233.081 59.9861C231.701 54.7514 229.66 49.6944 227.362 44.8021C225.579 41.0028 223.796 36.2487 221.036 33.0354C219.273 30.9876 216.044 29.3744 215.304 29.6641C214.578 29.9604 211.342 31.2774 211.342 33.0354C211.342 34.7935 212.518 34.7935 212.518 34.7935C212.518 34.7935 212.227 36.9928 213.105 37.8685C213.984 38.7443 218.54 38.4545 218.54 38.4545C218.54 38.4545 220.105 40.7723 220.554 42.2604C221.432 45.1906 222.211 45.7766 222.799 51.0508C223.387 56.3251 225.295 63.5023 225.295 63.5023C225.295 63.5023 224.708 63.792 223.829 64.8192C222.951 65.8464 217.365 71.4103 217.365 71.4103C217.365 71.4103 215.311 72.4375 212.372 73.3133C210.556 73.8532 208.972 74.617 208.021 75.124C207.116 75.0187 206.205 74.9199 205.716 74.9199C204.686 74.9199 197.488 76.2368 197.488 76.2368C197.488 76.2368 195.137 74.7751 192.199 73.8927C189.26 73.017 187.207 71.9898 187.207 71.9898C187.207 71.9898 181.627 66.4258 180.742 65.3986C179.864 64.3714 179.276 64.0817 179.276 64.0817C179.276 64.0817 181.185 56.9045 181.772 51.6303C182.248 47.3766 183.469 42.5436 186.031 39.034C186.031 39.034 190.588 39.3237 191.466 38.448C192.344 37.5722 192.054 35.373 192.054 35.373C192.054 35.373 193.229 35.373 193.229 33.6149C193.229 31.8568 190 30.5399 189.26 30.2436C188.527 29.9539 185.292 31.5605 183.535 33.6149C181.772 35.6627 181.917 37.7171 180.154 40.6472C178.391 43.5773 172.224 57.7868 171.491 60.5655C170.758 63.3508 169.873 64.9575 170.025 66.281C170.17 67.5979 177.222 75.2162 178.986 77.264C180.749 79.3118 187.504 86.3442 187.504 86.3442C187.504 86.3442 190 98.6441 190.733 103.043C191.466 107.435 191.024 119.596 191.024 119.596C191.024 119.596 199.1 117.838 206.74 116.962C214.38 116.087 222.753 113.157 223.776 113.157C224.807 113.157 224.807 113.157 224.807 113.157C224.807 113.157 219.075 106.124 219.075 105.104C219.075 104.287 219.26 89.3665 219.339 83.3877C221.472 81.1489 224.49 77.962 225.579 76.6912C227.342 74.6434 234.395 67.025 234.54 65.7081C234.698 64.378 233.82 62.7648 233.081 59.9861Z" fill="#FFA895"/>
<path opacity="0.1" d="M191.618 105.973C191.175 103.925 190.588 92.0596 189.855 88.2472C189.122 84.4413 187.359 82.9729 186.329 81.3663C185.298 79.7531 182.36 77.409 178.688 73.4582C175.017 69.5009 171.636 66.1362 172.224 63.206C172.64 61.1714 176.602 49.7142 178.972 42.9189C176.509 47.9561 172.105 58.2413 171.497 60.5656C170.764 63.3509 169.879 64.9575 170.031 66.281C170.177 67.5979 177.229 75.2163 178.992 77.2641C180.755 79.3119 187.511 86.3442 187.511 86.3442C187.511 86.3442 190.007 98.6442 190.74 103.043C191.01 104.676 191.123 107.389 191.156 110.147C191.532 108.264 191.763 106.644 191.618 105.973Z" fill="black"/>
<path opacity="0.1" d="M232.308 64.964C232.308 67.1632 221.584 75.0713 219.088 79.1735C216.592 83.2757 217.325 93.383 217.325 97.4786C217.325 101.581 217.18 102.457 217.18 102.457L219.088 104.774C219.108 102.43 219.28 88.9779 219.346 83.3745C221.478 81.1357 224.496 77.9488 225.586 76.6779C227.349 74.6301 234.401 67.0118 234.547 65.6949C234.692 64.378 233.814 62.7647 233.081 59.9795C231.701 54.7447 229.66 49.6878 227.362 44.7954C225.579 40.9961 223.796 36.2421 221.036 33.0288C221.036 33.0288 225.698 44.3082 228.485 51.7751C231.278 59.2486 232.308 62.7647 232.308 64.964Z" fill="black"/>
<path opacity="0.05" d="M192.06 35.3794C192.06 35.3794 188.389 32.3045 188.092 33.6214C187.801 34.9383 190.297 36.6964 190.297 36.6964" stroke="#111111" stroke-width="0.5" stroke-miterlimit="10" stroke-linecap="round" stroke-linejoin="round"/>
<path opacity="0.05" d="M187.068 35.083C187.068 35.083 187.359 37.8683 184.427 38.3029" stroke="#111111" stroke-width="0.5" stroke-miterlimit="10" stroke-linecap="round" stroke-linejoin="round"/>
<path opacity="0.05" d="M189.122 35.8142L186.183 34.3524L186.335 33.3252L187.213 32.8906" stroke="#111111" stroke-width="0.5" stroke-miterlimit="10" stroke-linecap="round" stroke-linejoin="round"/>
<path opacity="0.05" d="M189.399 31.1982C189.399 31.1982 189.67 32.6995 189.67 33.6543" stroke="#111111" stroke-width="0.5" stroke-miterlimit="10" stroke-linecap="round" stroke-linejoin="round"/>
<path opacity="0.05" d="M191.043 31.6064C191.043 31.6064 191.314 32.9695 191.043 34.609" stroke="#111111" stroke-width="0.5" stroke-miterlimit="10" stroke-linecap="round" stroke-linejoin="round"/>
<path opacity="0.05" d="M192.549 32.2847C192.549 32.2847 192.82 33.786 191.592 34.7407" stroke="#111111" stroke-width="0.5" stroke-miterlimit="10" stroke-linecap="round" stroke-linejoin="round"/>
<path opacity="0.05" d="M212.518 34.7936C212.518 34.7936 217.615 33.4767 216.882 34.9385C216.149 36.4003 213.799 36.8414 213.799 36.8414" stroke="#111111" stroke-width="0.5" stroke-miterlimit="10" stroke-linecap="round" stroke-linejoin="round"/>
<path opacity="0.05" d="M219.966 36.9862C219.966 36.9862 218.646 35.959 217.913 35.6693C217.18 35.3796 217.034 34.3524 217.034 34.3524C217.034 34.3524 218.652 34.0627 218.652 33.3252C218.652 32.5877 217.477 32.0083 217.477 32.0083L217.332 32.7392" stroke="#111111" stroke-width="0.5" stroke-miterlimit="10" stroke-linecap="round" stroke-linejoin="round"/>
<path opacity="0.05" d="M215.403 30.9219C215.403 30.9219 214.822 33.8257 217.028 34.3524" stroke="#111111" stroke-width="0.5" stroke-miterlimit="10" stroke-linecap="round" stroke-linejoin="round"/>
<path opacity="0.05" d="M213.766 31.0601C213.766 31.0601 213.356 33.2461 214.723 34.3326" stroke="#111111" stroke-width="0.5" stroke-miterlimit="10" stroke-linecap="round" stroke-linejoin="round"/>
<path opacity="0.05" d="M212.531 31.8765C212.531 31.8765 212.121 33.786 213.079 34.4708" stroke="#111111" stroke-width="0.5" stroke-miterlimit="10" stroke-linecap="round" stroke-linejoin="round"/>
<path d="M206.746 116.963C214.386 116.087 222.76 113.157 223.783 113.157C224.813 113.157 224.813 113.157 224.813 113.157C224.813 113.157 219.081 106.124 219.081 105.104C219.081 104.287 219.266 89.3666 219.346 83.3878C220.349 82.3343 221.551 81.0634 222.661 79.8848C221.049 79.4041 219.293 78.5679 218.646 77.1259C217.84 75.3414 218.236 72.2533 218.665 70.1133C217.899 70.8771 217.365 71.417 217.365 71.417C217.365 71.417 215.311 72.4442 212.372 73.32C210.556 73.8599 208.972 74.6237 208.021 75.1307C207.116 75.0254 206.205 74.9266 205.716 74.9266C204.686 74.9266 197.488 76.2435 197.488 76.2435C197.488 76.2435 195.138 74.7817 192.199 73.8994C189.261 73.0237 187.207 71.9965 187.207 71.9965C187.207 71.9965 187.128 71.9175 186.996 71.7858C187.233 74.064 187.458 77.1127 187.207 79.0288C186.923 81.1951 185.18 82.2091 183.978 82.6569C185.86 84.6389 187.504 86.3508 187.504 86.3508C187.504 86.3508 190 98.6508 190.733 103.049C191.466 107.441 191.024 119.603 191.024 119.603C191.024 119.603 199.113 117.838 206.746 116.963Z" fill="#1CE783"/>
<path d="M194.51 69.5667C194.51 69.5667 193.711 67.9666 191.974 64.7731C190.238 61.5796 191.71 55.9893 198.248 53.8624C204.785 51.7356 208.925 55.7259 209.856 58.386C210.787 61.0462 209.988 63.9764 209.454 65.5698C208.919 67.1699 208.919 68.5 208.919 68.5C208.919 68.5 208.655 68.0983 207.717 67.4333C206.792 66.7682 205.188 59.7161 203.055 59.1828C200.922 58.6494 196.385 59.8478 195.983 63.173C195.58 66.5048 195.58 71.5618 194.51 69.5667Z" fill="#1E1E1E"/>
<path d="M208.39 67.9664C208.39 67.9664 209.189 65.7013 210.259 66.768C211.329 67.8347 210.794 70.0932 210.127 71.0282C209.46 71.9632 208.925 71.4299 208.523 70.3632C208.126 69.2965 208.39 67.9664 208.39 67.9664Z" fill="white"/>
<path d="M208.39 67.9664C208.39 67.9664 209.189 65.7013 210.259 66.768C211.329 67.8347 210.794 70.0932 210.127 71.0282C209.46 71.9632 208.925 71.4299 208.523 70.3632C208.126 69.2965 208.39 67.9664 208.39 67.9664Z" fill="#FFA895"/>
<path d="M195.124 69.2835C195.124 69.2835 193.738 67.3213 192.998 68.6316C192.258 69.9419 193.388 71.9766 194.279 72.6943C195.17 73.412 195.547 72.7536 195.639 71.621C195.738 70.4885 195.124 69.2835 195.124 69.2835Z" fill="white"/>
<path d="M195.124 69.2835C195.124 69.2835 193.738 67.3213 192.998 68.6316C192.258 69.9419 193.388 71.9766 194.279 72.6943C195.17 73.412 195.547 72.7536 195.639 71.621C195.738 70.4885 195.124 69.2835 195.124 69.2835Z" fill="#FFA895"/>
<path d="M196.914 75.552C196.914 75.552 196.782 78.2121 197.317 81.274C197.852 84.3358 198.518 86.3309 198.518 86.3309L203.326 81.8073L209.328 85.0008C209.328 85.0008 210.259 78.8772 208.397 76.217C206.528 73.5568 200.387 73.2869 198.789 74.2219C197.185 75.1503 196.914 75.552 196.914 75.552Z" fill="#37AC73"/>
<path d="M198.65 76.8823C198.65 76.8823 202.117 85.9295 203.986 85.2644C205.855 84.5994 206.39 76.6123 206.39 76.6123C206.39 76.6123 200.651 77.8173 198.65 76.8823Z" fill="#FFA895"/>
<path opacity="0.25" d="M198.65 76.8823C198.65 76.8823 202.117 85.9295 203.986 85.2644C205.855 84.5994 206.39 76.6123 206.39 76.6123C206.39 76.6123 200.651 77.8173 198.65 76.8823Z" fill="black"/>
<path d="M194.114 65.708C194.114 65.708 194.781 71.5617 195.58 74.2219C196.379 76.882 199.476 79.2986 203.616 78.6335C207.757 77.9685 209.196 71.9568 209.196 71.5617C209.196 71.1666 208.932 63.9763 207.327 61.3161C205.723 58.6559 202.659 56.1274 198.386 58.1226C194.114 60.1177 193.711 64.2396 194.114 65.708Z" fill="white"/>
<path d="M194.114 65.708C194.114 65.708 194.781 71.5617 195.58 74.2219C196.379 76.882 199.476 79.2986 203.616 78.6335C207.757 77.9685 209.196 71.9568 209.196 71.5617C209.196 71.1666 208.932 63.9763 207.327 61.3161C205.723 58.6559 202.659 56.1274 198.386 58.1226C194.114 60.1177 193.711 64.2396 194.114 65.708Z" fill="#FFA895"/>
<path opacity="0.1" d="M209.196 71.5618C209.196 71.1602 208.932 63.9764 207.327 61.3162C207.017 60.8026 206.647 60.289 206.231 59.8149C206.627 61.4743 208.641 70.4095 207.05 73.4648C205.287 76.8361 201.47 77.1258 197.944 75.3677C195.329 74.064 194.576 66.4061 194.358 62.5278C193.929 63.8381 193.942 65.0431 194.12 65.7081C194.12 65.7081 194.787 71.5618 195.586 74.222C196.385 76.8822 199.482 79.2987 203.623 78.6337C207.75 77.9686 209.196 71.9569 209.196 71.5618Z" fill="black"/>
<path d="M197.904 69.1254C197.904 69.1254 201.516 70.4028 204.66 67.499C205.254 67.6966 205.029 71.272 201.747 71.7922C199.951 72.0885 198.254 70.8703 197.904 69.1254Z" fill="#FFA895" stroke="#111111" stroke-width="0.5" stroke-miterlimit="10" stroke-linecap="round" stroke-linejoin="round"/>
<path d="M199.799 65.9649C199.799 65.9649 198.987 67.1041 199.39 67.5057C199.799 67.914 201.424 67.993 202.243 67.0975C203.055 66.202 201.754 65.3921 201.754 65.3921" stroke="#111111" stroke-width="0.5" stroke-miterlimit="10" stroke-linecap="round" stroke-linejoin="round"/>
<path d="M196.65 66.5049C196.65 66.5049 197.052 65.1748 199.185 65.1748" stroke="#111111" stroke-width="0.5" stroke-miterlimit="10" stroke-linecap="round" stroke-linejoin="round"/>
<path d="M202.923 64.6414C202.923 64.6414 204.323 63.0875 206.059 64.2859" stroke="#111111" stroke-width="0.5" stroke-miterlimit="10" stroke-linecap="round" stroke-linejoin="round"/>
<path d="M198.914 62.5081C198.914 62.5081 195.864 61.9023 195.487 64.6612" stroke="#111111" stroke-width="0.5" stroke-miterlimit="10" stroke-linecap="round" stroke-linejoin="round"/>
<path d="M202.157 62.1523C202.157 62.1523 204.303 60.414 206.31 62.2775" stroke="#111111" stroke-width="0.5" stroke-miterlimit="10" stroke-linecap="round" stroke-linejoin="round"/>
<path d="M330 76.5452H249.945C249.945 76.5452 257.881 54.9131 270.096 54.9131C282.312 54.9131 286.139 69.8473 286.139 69.8473C286.139 69.8473 294.379 61.738 301.148 61.738C307.917 61.738 313.802 72.4587 313.802 72.4587C313.802 72.4587 323.379 66.6925 330 76.5452Z" fill="#E4F2FF"/>
<path d="M93.5583 12.0829H56.1477C56.1477 12.0829 64.5083 0 71.0936 0C77.6788 0 79.6239 8.05998 79.6239 8.05998C79.6239 8.05998 84.2711 4.29819 88.5787 4.96868C92.8863 5.63916 93.5583 12.0829 93.5583 12.0829Z" fill="#E4F2FF"/>
<path d="M72.876 42.361H0C0 42.361 9.9804 20.129 20.654 18.7386C31.3276 17.3482 36.4345 35.2538 36.4345 35.2538C36.4345 35.2538 43.3168 28.923 48.7349 28.923C54.153 28.923 58.3263 37.2582 58.3263 37.2582C58.3263 37.2582 69.1625 31.5555 72.876 42.361Z" fill="#E4F2FF"/>
</svg>
